<?xml version="1.0" encoding="UTF-8"?>
<!DOCTYPE svg PUBLIC "-//W3C//DTD SVG 1.1//EN" "http://www.w3.org/Graphics/SVG/1.1/DTD/svg11.dtd">
<!-- Creator: CorelDRAW -->
<svg xmlns="http://www.w3.org/2000/svg" xml:space="preserve" width="79.375mm" height="16.6686mm" shape-rendering="geometricPrecision" text-rendering="geometricPrecision" image-rendering="optimizeQuality" fill-rule="evenodd" clip-rule="evenodd"
viewBox="0 0 79.375 16.6686">
 <g id="Ebene_x0020_1">
  <metadata id="CorelCorpID_0Corel-Layer"/>
  <g id="_184884440">
   <g>
    <polygon id="_184884992" fill="white" points="4.1137,2.6285 4.1137,11.7178 16.0647,7.1696 "/>
    <path id="_184884920" fill="white" d="M0 7.1696c0,-3.9822 3.2294,-7.2116 7.2115,-7.2116 3.6366,0 6.6448,2.6935 7.1397,6.1937l-1.7177 -0.6527c-0.7134,-2.3171 -2.8713,-4.0019 -5.4222,-4.0019 -3.1323,0 -5.6725,2.5402 -5.6725,5.6725 0,3.1323 2.5402,5.6725 5.6725,5.6725 2.5498,0 4.707,-1.6834 5.4213,-3.999l1.7184 -0.6539c-0.4956,3.4993 -3.5035,6.1919 -7.1395,6.1919 -3.9821,0 -7.2115,-3.2294 -7.2115,-7.2115z"/>
   </g>
   <path id="_184884824" fill="white" d="M20.0147 16.5927l-0.04 -0.4361c-0.1374,0.0681 -0.3099,0.1092 -0.4828,0.1092 -0.4564,0 -0.7217,-0.2685 -0.7217,-0.7777 0,-0.4682 0.2433,-0.8048 0.6953,-0.8048 0.1593,0 0.3234,0.0272 0.4867,0.0818l0.0448 -0.4312c-0.1557,-0.0458 -0.3454,-0.0639 -0.4958,-0.0639 -0.8639,0 -1.2397,0.5951 -1.2397,1.2634 0,0.7186 0.3802,1.1636 1.1331,1.1636 0.2258,0 0.4291,-0.0362 0.6201,-0.1043m3.3915 -1.1319c0,-0.8004 -0.4647,-1.2 -1.1336,-1.2 -0.6381,0 -1.1952,0.4678 -1.1952,1.2454 0,0.7093 0.3715,1.2 1.1199,1.2 0.6601,0 1.2089,-0.4629 1.2089,-1.2454m-0.5131 0.0317c0,0.5276 -0.3019,0.7825 -0.6689,0.7825 -0.4519,0 -0.6381,-0.3548 -0.6381,-0.805 0,-0.5095 0.3055,-0.7823 0.6557,-0.7823 0.3943,0 0.6513,0.2776 0.6513,0.8048m4.68 1.1728l-0.3455 -2.3636 -0.6151 0 -0.4436 1.3409c-0.048,0.15 -0.0837,0.2684 -0.1189,0.4321l-0.0043 0c-0.0268,-0.1456 -0.0709,-0.3 -0.1158,-0.4457l-0.4291 -1.3273 -0.5984 0 -0.3539 2.3636 0.4784 0 0.1501 -1.2089c0.0273,-0.2094 0.0493,-0.3868 0.0581,-0.5642l0.0044 0c0.0312,0.1593 0.0884,0.364 0.1417,0.5321l0.3943 1.241 0.5047 0 0.4338 -1.3365c0.0489,-0.1544 0.0886,-0.3089 0.1149,-0.4409l0.0049 0c0.0127,0.132 0.0303,0.3137 0.062,0.5412l0.1725 1.2362 0.5048 0zm3.0381 -1.6138c0,-0.4773 -0.3317,-0.7634 -0.9161,-0.7634 -0.2707,0 -0.5585,0.0093 -0.7529,0.0136l0 2.3636 0.4778 0 0 -0.7776c0.0577,0.0048 0.1461,0.0092 0.2037,0.0092 0.5853,0 0.9875,-0.3269 0.9875,-0.8454m-0.5087 0.0322c0,0.2772 -0.1817,0.4229 -0.4788,0.4229 -0.062,0 -0.1504,-0.0044 -0.2037,-0.0181l0 -0.8008c0.062,-0.0044 0.1461,-0.0044 0.2351,-0.0044 0.297,0 0.4474,0.168 0.4474,0.4004m3.4941 1.5816l-0.5717 -0.7909c-0.07,-0.0997 -0.1319,-0.1909 -0.1852,-0.2543 0.3675,-0.0594 0.6284,-0.2913 0.6284,-0.6776 0,-0.4362 -0.3186,-0.6544 -0.8678,-0.6544 -0.2838,0 -0.5848,0.0049 -0.7529,0.0136l0 2.3636 0.4779 0 0 -0.9726 0.022 0 0.66 0.9726 0.5893 0zm-0.6328 -1.6726c0,0.2226 -0.1642,0.3727 -0.4168,0.3727 -0.0752,0 -0.1553,-0.0045 -0.2217,-0.0092l0 -0.6821c0.0621,-0.0089 0.1241,-0.0089 0.2038,-0.0089 0.2705,0 0.4347,0.1135 0.4347,0.3275m3.2234 1.6726l0 -0.3903 -0.8765 0 0 -0.6373 0.8369 0 0 -0.3722 -0.8369 0 0 -0.5778 0.8765 0 0 -0.386 -1.3545 0 0 2.3636 1.3545 0zm2.7411 -0.7499c0,-0.741 -1.027,-0.5637 -1.027,-0.9685 0,-0.1774 0.1285,-0.2953 0.4211,-0.2953 0.1329,0 0.3142,0.0272 0.4382,0.0681l0.0176 -0.418c-0.128,-0.0224 -0.3048,-0.0409 -0.4378,-0.0409 -0.6073,0 -0.9434,0.2953 -0.9434,0.7406 0,0.7688 1.0142,0.5505 1.0142,0.9686 0,0.2319 -0.2085,0.3322 -0.4255,0.3322 -0.1949,0 -0.3767,-0.0364 -0.5091,-0.0911l-0.0176 0.4405c0.1281,0.0317 0.3138,0.059 0.4735,0.059 0.5893,0 0.9958,-0.3134 0.9958,-0.7952m2.6844 0c0,-0.741 -1.0275,-0.5637 -1.0275,-0.9685 0,-0.1774 0.1285,-0.2953 0.4211,-0.2953 0.1329,0 0.3146,0.0272 0.4383,0.0681l0.0175 -0.418c-0.1279,-0.0224 -0.3048,-0.0409 -0.4378,-0.0409 -0.6072,0 -0.9434,0.2953 -0.9434,0.7406 0,0.7688 1.0143,0.5505 1.0143,0.9686 0,0.2319 -0.2086,0.3322 -0.4255,0.3322 -0.195,0 -0.3762,-0.0364 -0.5092,-0.0911l-0.0176 0.4405c0.1281,0.0317 0.3142,0.059 0.473,0.059 0.5898,0 0.9968,-0.3134 0.9968,-0.7952m2.6702 0.7499l0 -0.3903 -0.8765 0 0 -0.6373 0.837 0 0 -0.3722 -0.837 0 0 -0.5778 0.8765 0 0 -0.386 -1.3541 0 0 2.3636 1.3541 0zm3.4638 -1.2181c0,-0.8229 -0.4867,-1.1542 -1.2449,-1.1542 -0.2698,0 -0.6328,0.0087 -0.8361,0.0087l0 2.3636c0.1988,0.0044 0.4246,0.0136 0.7167,0.0136 0.7754,0 1.3643,-0.3815 1.3643,-1.2317m-0.5088 0.0273c0,0.5364 -0.3331,0.796 -0.8066,0.796 -0.102,0 -0.2218,-0.0092 -0.2883,-0.0136l0 -1.56c0.0934,-0.0044 0.2126,-0.0092 0.3059,-0.0092 0.5233,0 0.789,0.264 0.789,0.7868m5.4378 1.1908l-0.8678 -2.3636 -0.5623 0 -0.8722 2.3636 0.4784 0 0.168 -0.459 0.9611 0 0.1637 0.459 0.5311 0zm-0.8145 -0.8133l-0.7262 0 0.2479 -0.6684c0.0444,-0.1228 0.088,-0.2548 0.1153,-0.3683l0.0043 0c0.0308,0.1091 0.0753,0.25 0.1198,0.3727l0.2389 0.664zm2.4621 -1.5503l-0.4779 0 0 2.3636 0.4779 0 0 -2.3636zm3.2459 2.3636l-0.5707 -0.7909c-0.0709,-0.0997 -0.133,-0.1909 -0.1862,-0.2543 0.3674,-0.0594 0.6284,-0.2913 0.6284,-0.6776 0,-0.4362 -0.3186,-0.6544 -0.8678,-0.6544 -0.2834,0 -0.5844,0.0049 -0.7525,0.0136l0 2.3636 0.4779 0 0 -0.9726 0.022 0 0.6605 0.9726 0.5884 0zm-0.6332 -1.6726c0,0.2226 -0.1633,0.3727 -0.4164,0.3727 -0.0752,0 -0.1548,-0.0045 -0.2213,-0.0092l0 -0.6821c0.062,-0.0089 0.1236,-0.0089 0.2037,-0.0089 0.2707,0 0.434,0.1135 0.434,0.3275m4.9027 0.9227c0,-0.741 -1.0276,-0.5637 -1.0276,-0.9685 0,-0.1774 0.1285,-0.2953 0.4211,-0.2953 0.133,0 0.3147,0.0272 0.4383,0.0681l0.0176 -0.418c-0.128,-0.0224 -0.305,-0.0409 -0.4378,-0.0409 -0.6073,0 -0.9436,0.2953 -0.9436,0.7406 0,0.7688 1.0144,0.5505 1.0144,0.9686 0,0.2319 -0.2085,0.3322 -0.426,0.3322 -0.1944,0 -0.3758,-0.0364 -0.5086,-0.0911l-0.0176 0.4405c0.1279,0.0317 0.3142,0.059 0.4735,0.059 0.5891,0 0.9963,-0.3134 0.9963,-0.7952m2.9487 -1.6137l-0.4959 0 -0.3366 0.6544c-0.0713,0.1408 -0.1462,0.2958 -0.2077,0.4594l-0.0045 0c-0.0576,-0.1593 -0.1196,-0.3001 -0.1861,-0.4366l-0.3405 -0.6772 -0.5273 0 0.8062 1.5776 0 0.786 0.4775 0 0 -0.7909 0.8149 -1.5727zm2.3873 1.6137c0,-0.741 -1.0275,-0.5637 -1.0275,-0.9685 0,-0.1774 0.1285,-0.2953 0.4212,-0.2953 0.1329,0 0.3142,0.0272 0.4383,0.0681l0.0176 -0.418c-0.1281,-0.0224 -0.3054,-0.0409 -0.4384,-0.0409 -0.6068,0 -0.943,0.2953 -0.943,0.7406 0,0.7688 1.0144,0.5505 1.0144,0.9686 0,0.2319 -0.2086,0.3322 -0.4265,0.3322 -0.194,0 -0.3757,-0.0364 -0.5082,-0.0911l-0.0176 0.4405c0.128,0.0317 0.3137,0.059 0.4735,0.059 0.5892,0 0.9962,-0.3134 0.9962,-0.7952m2.6655 -1.1957l0 -0.418 -1.7536 0 0 0.418 0.6377 0 0 1.9456 0.4782 0 0 -1.9456 0.6377 0zm2.5242 1.9456l0 -0.3903 -0.8766 0 0 -0.6373 0.837 0 0 -0.3722 -0.837 0 0 -0.5778 0.8766 0 0 -0.386 -1.3545 0 0 2.3636 1.3545 0zm4.2919 0l-0.3454 -2.3636 -0.6158 0 -0.443 1.3409c-0.0484,0.15 -0.0836,0.2684 -0.1193,0.4321l-0.0044 0c-0.0264,-0.1456 -0.0708,-0.3 -0.1153,-0.4457l-0.4295 -1.3273 -0.5977 0 -0.3541 2.3636 0.4783 0 0.1505 -1.2089c0.0263,-0.2094 0.0488,-0.3868 0.0577,-0.5642l0.0043 0c0.0305,0.1593 0.0885,0.364 0.1414,0.5321l0.3941 1.241 0.5052 0 0.434 -1.3365c0.0484,-0.1544 0.0884,-0.3089 0.1144,-0.4409l0.0049 0c0.0132,0.132 0.0311,0.3137 0.062,0.5412l0.1725 1.2362 0.5052 0zm2.7187 -0.7499c0,-0.741 -1.0276,-0.5637 -1.0276,-0.9685 0,-0.1774 0.1285,-0.2953 0.4211,-0.2953 0.1325,0 0.3142,0.0272 0.4383,0.0681l0.0176 -0.418c-0.1284,-0.0224 -0.3058,-0.0409 -0.4383,-0.0409 -0.6067,0 -0.943,0.2953 -0.943,0.7406 0,0.7688 1.0143,0.5505 1.0143,0.9686 0,0.2319 -0.2085,0.3322 -0.4259,0.3322 -0.195,0 -0.3763,-0.0364 -0.5087,-0.0911l-0.0176 0.4405c0.128,0.0317 0.3137,0.059 0.473,0.059 0.5896,0 0.9968,-0.3134 0.9968,-0.7952z"/>
   <path id="_184884752" fill="white" d="M49.5793 7.1123c0,-3.6216 -4.177,-5.0615 -7.8158,-5.0699 -3.6666,-0.0078 -7.8754,1.505 -7.8749,5.1161 0.0018,4.2 4.185,5.2398 7.8749,5.2231 3.6815,-0.0172 7.8158,-1.0073 7.8158,-5.2693m-6.3518 -0.0619c0,1.5185 0.0158,3.5644 -1.464,3.5644 -1.5138,0 -1.509,-2.0459 -1.509,-3.5644 0,-1.4575 0.0462,-3.4409 1.509,-3.4409 1.464,0 1.464,1.9526 1.464,3.4409z"/>
   <path id="_184884680" fill="white" d="M59.8222 5.4381l5.2306 -0.4647c-0.1717,-0.6051 -0.6844,-1.2379 -1.417,-1.6745 -1.432,-0.8518 -3.0039,-1.2699 -5.2618,-1.2699 -3.7356,0 -7.6742,1.5807 -7.6742,5.0835 0,4.262 4.0472,5.362 7.6281,5.3467 2.7758,-0.0124 5.6824,-1.0227 6.7557,-2.1233l0 -4.0147 -6.7557 0 0 1.6744 1.479 0 0 1.348c-0.0938,0.7291 -0.4185,1.4667 -1.4026,1.4574 -1.5564,-0.0158 -1.4627,-2.1593 -1.4627,-3.6885 0,-1.535 -0.0783,-3.3554 1.4786,-3.3792 1.013,-0.0154 1.3545,0.8471 1.402,1.7048z"/>
   <polygon id="_184884536" fill="white" points="66.4223,2.354 66.4223,11.9943 79.3583,11.9943 79.3583,10.0414 71.7466,10.0414 71.7466,8.1663 79.3428,8.1663 79.3428,6.1667 71.7308,6.1667 71.7308,4.3224 79.3583,4.3224 79.3583,2.3589 "/>
   <path id="_184884464" fill="white" d="M32.8842 4.6732c-0.0092,-1.8039 -2.0432,-2.397 -3.5007,-2.3768l-11.1409 0 0 9.7442 11.1409 0c1.7114,-0.0291 3.4998,-0.6095 3.4998,-2.449 0,-1.3223 -0.7762,-1.9838 -1.7312,-2.1906 -0.5531,-0.1196 -0.9927,-0.2117 -1.4988,-0.3198 0.4986,-0.0388 0.9813,-0.1088 1.4949,-0.2404 1.031,-0.2645 1.7426,-0.9434 1.736,-2.1676m-6.024 0.3181c-0.0149,0.5769 -0.4796,1.0332 -1.0596,1.0386l-2.2496 0 0 -2.1312 2.2421 0c0.5967,0.0012 1.0825,0.4981 1.0671,1.0926m0 4.4067c-0.0149,0.5774 -0.4796,1.0328 -1.0596,1.0389l-2.2496 0 0 -2.1312 2.2421 0c0.5967,0.0014 1.0825,0.4982 1.0671,1.0923z"/>
  </g>
 </g>
</svg>
